<?xml version="1.0" encoding="UTF-8" standalone="no"?>
<!-- Generator: Adobe Illustrator 14.0.0, SVG Export Plug-In . SVG Version: 6.00 Build 43363)  -->

<svg
   viewBox="0 0 174.3 258.375"
   version="1.1"
   y="0px"
   x="0px"
   enable-background="new 0 0 174.3 258.375"
   xml:space="preserve"
   width="2.42083in"
   id="Layer_1"
   gorn="0"
   height="3.58854in"
   sodipodi:docname="74LS83.svg"
   inkscape:version="1.3.2 (091e20e, 2023-11-25, custom)"
   xmlns:inkscape="http://www.inkscape.org/namespaces/inkscape"
   xmlns:sodipodi="http://sodipodi.sourceforge.net/DTD/sodipodi-0.dtd"
   xmlns="http://www.w3.org/2000/svg"
   xmlns:svg="http://www.w3.org/2000/svg"
   xmlns:rdf="http://www.w3.org/1999/02/22-rdf-syntax-ns#"
   xmlns:cc="http://creativecommons.org/ns#"
   xmlns:dc="http://purl.org/dc/elements/1.1/"><sodipodi:namedview
   id="namedview63"
   pagecolor="#505050"
   bordercolor="#eeeeee"
   borderopacity="1"
   inkscape:showpageshadow="0"
   inkscape:pageopacity="0"
   inkscape:pagecheckerboard="0"
   inkscape:deskcolor="#505050"
   inkscape:document-units="in"
   inkscape:zoom="1.1727146"
   inkscape:cx="150.93186"
   inkscape:cy="176.51353"
   inkscape:window-width="1024"
   inkscape:window-height="600"
   inkscape:window-x="1393"
   inkscape:window-y="127"
   inkscape:window-maximized="0"
   inkscape:current-layer="textOnPins" />
    <desc
   id="desc1">
        <referenceFile>74HC595-schema.svg</referenceFile>
    </desc>
    <metadata
   id="metadata276">
        <rdf:RDF>
            <cc:Work
   rdf:about="">
                <dc:format>image/svg+xml</dc:format>
                <dc:type
   rdf:resource="http://purl.org/dc/dcmitype/StillImage" />
            </cc:Work>
        </rdf:RDF>
    </metadata>
    <defs
   id="defs274">
        
    
        
    
        
    
        
    
        
    
                    
                
                        
                    
                            
                        
                                
                            
            
        
                
            
                    
                
                        
                    
                            
                        
                                
                            
                                    
                                
                                            
                                        
                                            
                                        
                                            
                                        
                                            
                                        
                                            
                                        
                                            
                                        
                                            
                                        
                                            
                                        
                                            
                                        </defs>
    <g
   id="g55"
   transform="translate(-0.77414782,-0.58061086)">
            <g
   id="g54">
                <g
   id="schematic"
   gorn="0.3.0.0.0.0.0.0">
                                    <rect
   y="59.226002"
   x="1.15"
   width="10"
   id="connector0pin"
   gorn="0.3.0.0.0.0.0.0.0"
   height="2"
   style="fill:none" />
                                    <rect
   y="85.225998"
   x="1.15"
   width="10"
   id="connector1pin"
   gorn="0.3.0.0.0.0.0.0.1"
   height="2"
   style="fill:none" />
                                    <rect
   y="111.226"
   x="1.15"
   width="10"
   id="connector2pin"
   gorn="0.3.0.0.0.0.0.0.2"
   height="2"
   style="fill:none" />
                                    <rect
   y="137.22701"
   x="1.15"
   width="10"
   id="connector3pin"
   gorn="0.3.0.0.0.0.0.0.3"
   height="2"
   style="fill:none" />
                                    <rect
   y="163.22701"
   x="1.15"
   width="10"
   id="connector4pin"
   gorn="0.3.0.0.0.0.0.0.4"
   height="2"
   style="fill:none" />
                                    <rect
   y="189.22701"
   x="1.15"
   width="10"
   id="connector5pin"
   gorn="0.3.0.0.0.0.0.0.5"
   height="2"
   style="fill:none" />
                                    <rect
   y="215.22701"
   x="1.15"
   width="10"
   id="connector6pin"
   gorn="0.3.0.0.0.0.0.0.6"
   height="2"
   style="fill:none" />
                                    <rect
   y="241.22701"
   x="1.15"
   width="10"
   id="connector7pin"
   gorn="0.3.0.0.0.0.0.0.7"
   height="2"
   style="fill:none" />
                                    <rect
   y="241.22701"
   x="163.14999"
   width="10"
   id="connector8pin"
   gorn="0.3.0.0.0.0.0.0.8"
   height="2"
   style="fill:none" />
                                    <rect
   y="215.22701"
   x="163.14999"
   width="10"
   id="connector9pin"
   gorn="0.3.0.0.0.0.0.0.9"
   height="2"
   style="fill:none" />
                                    <rect
   y="189.22701"
   x="163.14999"
   width="10"
   id="connector10pin"
   gorn="0.3.0.0.0.0.0.0.10"
   height="2"
   style="fill:none" />
                                    <rect
   y="163.22701"
   x="163.14999"
   width="10"
   id="connector11pin"
   gorn="0.3.0.0.0.0.0.0.11"
   height="2"
   style="fill:none" />
                                    <rect
   y="137.22701"
   x="163.14999"
   width="10"
   id="connector12pin"
   gorn="0.3.0.0.0.0.0.0.12"
   height="2"
   style="fill:none" />
                                    <rect
   y="111.226"
   x="163.14999"
   width="10"
   id="connector13pin"
   gorn="0.3.0.0.0.0.0.0.13"
   height="2"
   style="fill:none" />
                                    <rect
   y="85.225998"
   x="163.14999"
   width="10"
   id="connector14pin"
   gorn="0.3.0.0.0.0.0.0.14"
   height="2"
   style="fill:none" />
                                    <rect
   y="59.226002"
   x="163.14999"
   width="10"
   id="connector15pin"
   gorn="0.3.0.0.0.0.0.0.15"
   height="2"
   style="fill:none" />
                                    <rect
   y="59.226002"
   x="1.15"
   width="2"
   id="connector0terminal"
   gorn="0.3.0.0.0.0.0.0.16"
   height="2"
   style="fill:none" />
                                    <rect
   y="85.225998"
   x="1.15"
   width="2"
   id="connector1terminal"
   gorn="0.3.0.0.0.0.0.0.17"
   height="2"
   style="fill:none" />
                                    <rect
   y="111.226"
   x="1.15"
   width="2"
   id="connector2terminal"
   gorn="0.3.0.0.0.0.0.0.18"
   height="2"
   style="fill:none" />
                                    <rect
   y="137.22701"
   x="1.15"
   width="2"
   id="connector3terminal"
   gorn="0.3.0.0.0.0.0.0.19"
   height="2"
   style="fill:none" />
                                    <rect
   y="163.22701"
   x="1.15"
   width="2"
   id="connector4terminal"
   gorn="0.3.0.0.0.0.0.0.20"
   height="2"
   style="fill:none" />
                                    <rect
   y="189.22701"
   x="1.15"
   width="2"
   id="connector5terminal"
   gorn="0.3.0.0.0.0.0.0.21"
   height="2"
   style="fill:none" />
                                    <rect
   y="215.22701"
   x="1.15"
   width="2"
   id="connector6terminal"
   gorn="0.3.0.0.0.0.0.0.22"
   height="2"
   style="fill:none" />
                                    <rect
   y="241.22701"
   x="1.15"
   width="2"
   id="connector7terminal"
   gorn="0.3.0.0.0.0.0.0.23"
   height="2"
   style="fill:none" />
                                    <rect
   y="241.22701"
   x="171.14999"
   width="2"
   id="connector8terminal"
   gorn="0.3.0.0.0.0.0.0.24"
   height="2"
   style="fill:none" />
                                    <rect
   y="215.22701"
   x="171.14999"
   width="2"
   id="connector9terminal"
   gorn="0.3.0.0.0.0.0.0.25"
   height="2"
   style="fill:none" />
                                    <rect
   y="189.22701"
   x="171.14999"
   width="2"
   id="connector10terminal"
   gorn="0.3.0.0.0.0.0.0.26"
   height="2"
   style="fill:none" />
                                    <rect
   y="163.22701"
   x="171.14999"
   width="2"
   id="connector11terminal"
   gorn="0.3.0.0.0.0.0.0.27"
   height="2"
   style="fill:none" />
                                    <rect
   y="137.22701"
   x="171.14999"
   width="2"
   id="connector12terminal"
   gorn="0.3.0.0.0.0.0.0.28"
   height="2"
   style="fill:none" />
                                    <rect
   y="111.226"
   x="171.14999"
   width="2"
   id="connector13terminal"
   gorn="0.3.0.0.0.0.0.0.29"
   height="2"
   style="fill:none" />
                                    <rect
   y="85.225998"
   x="171.14999"
   width="2"
   id="connector14terminal"
   gorn="0.3.0.0.0.0.0.0.30"
   height="2"
   style="fill:none" />
                                    <rect
   y="59.226002"
   x="171.14999"
   width="2"
   id="connector15terminal"
   gorn="0.3.0.0.0.0.0.0.31"
   height="2"
   style="fill:none" />
                                    <rect
   y="45.226002"
   x="32.150002"
   width="110"
   stroke="#000000"
   fill="none"
   id="box"
   gorn="0.3.0.0.0.0.0.0.32"
   height="212"
   style="stroke-linecap:round;stroke-linejoin:round"
   stroke-width="2.3" />
                                    <line
   x1="1.15"
   y2="60.226002"
   stroke="#000000"
   fill="none"
   id="line37"
   gorn="0.3.0.0.0.0.0.0.33"
   style="stroke-linecap:round;stroke-linejoin:round"
   x2="32.150002"
   stroke-width="2.3"
   y1="60.226002" />
                                    <line
   x1="1.15"
   y2="86.225998"
   stroke="#000000"
   fill="none"
   id="line39"
   gorn="0.3.0.0.0.0.0.0.34"
   style="stroke-linecap:round;stroke-linejoin:round"
   x2="32.150002"
   stroke-width="2.3"
   y1="86.225998" />
                                    <line
   x1="1.15"
   y2="112.226"
   stroke="#000000"
   fill="none"
   id="line41"
   gorn="0.3.0.0.0.0.0.0.35"
   style="stroke-linecap:round;stroke-linejoin:round"
   x2="32.150002"
   stroke-width="2.3"
   y1="112.226" />
                                    <line
   x1="1.15"
   y2="138.22701"
   stroke="#000000"
   fill="none"
   id="line43"
   gorn="0.3.0.0.0.0.0.0.36"
   style="stroke-linecap:round;stroke-linejoin:round"
   x2="32.150002"
   stroke-width="2.3"
   y1="138.22701" />
                                    <line
   x1="1.15"
   y2="164.22701"
   stroke="#000000"
   fill="none"
   id="line45"
   gorn="0.3.0.0.0.0.0.0.37"
   style="stroke-linecap:round;stroke-linejoin:round"
   x2="32.150002"
   stroke-width="2.3"
   y1="164.22701" />
                                    <line
   x1="1.15"
   y2="190.22701"
   stroke="#000000"
   fill="none"
   id="line47"
   gorn="0.3.0.0.0.0.0.0.38"
   style="stroke-linecap:round;stroke-linejoin:round"
   x2="32.150002"
   stroke-width="2.3"
   y1="190.22701" />
                                    <line
   x1="1.15"
   y2="216.22701"
   stroke="#000000"
   fill="none"
   id="line49"
   gorn="0.3.0.0.0.0.0.0.39"
   style="stroke-linecap:round;stroke-linejoin:round"
   x2="32.150002"
   stroke-width="2.3"
   y1="216.22701" />
                                    <line
   x1="1.15"
   y2="242.22701"
   stroke="#000000"
   fill="none"
   id="line51"
   gorn="0.3.0.0.0.0.0.0.40"
   style="stroke-linecap:round;stroke-linejoin:round"
   x2="32.150002"
   stroke-width="2.3"
   y1="242.22701" />
                                    <line
   x1="142.14999"
   y2="242.22701"
   stroke="#000000"
   fill="none"
   id="line53"
   gorn="0.3.0.0.0.0.0.0.41"
   style="stroke-linecap:round;stroke-linejoin:round"
   x2="173.14999"
   stroke-width="2.3"
   y1="242.22701" />
                                    <line
   x1="142.14999"
   y2="216.22701"
   stroke="#000000"
   fill="none"
   id="line55"
   gorn="0.3.0.0.0.0.0.0.42"
   style="stroke-linecap:round;stroke-linejoin:round"
   x2="173.14999"
   stroke-width="2.3"
   y1="216.22701" />
                                    <line
   x1="142.14999"
   y2="190.22701"
   stroke="#000000"
   fill="none"
   id="line57"
   gorn="0.3.0.0.0.0.0.0.43"
   style="stroke-linecap:round;stroke-linejoin:round"
   x2="173.14999"
   stroke-width="2.3"
   y1="190.22701" />
                                    <line
   x1="142.14999"
   y2="164.22701"
   stroke="#000000"
   fill="none"
   id="line59"
   gorn="0.3.0.0.0.0.0.0.44"
   style="stroke-linecap:round;stroke-linejoin:round"
   x2="173.14999"
   stroke-width="2.3"
   y1="164.22701" />
                                    <line
   x1="142.14999"
   y2="138.22701"
   stroke="#000000"
   fill="none"
   id="line61"
   gorn="0.3.0.0.0.0.0.0.45"
   style="stroke-linecap:round;stroke-linejoin:round"
   x2="173.14999"
   stroke-width="2.3"
   y1="138.22701" />
                                    <line
   x1="142.14999"
   y2="112.226"
   stroke="#000000"
   fill="none"
   id="line63"
   gorn="0.3.0.0.0.0.0.0.46"
   style="stroke-linecap:round;stroke-linejoin:round"
   x2="173.14999"
   stroke-width="2.3"
   y1="112.226" />
                                    <line
   x1="142.14999"
   y2="86.225998"
   stroke="#000000"
   fill="none"
   id="line65"
   gorn="0.3.0.0.0.0.0.0.47"
   style="stroke-linecap:round;stroke-linejoin:round"
   x2="173.14999"
   stroke-width="2.3"
   y1="86.225998" />
                                    <line
   x1="142.14999"
   y2="60.226002"
   stroke="#000000"
   fill="none"
   id="line67"
   gorn="0.3.0.0.0.0.0.0.48"
   style="stroke-linecap:round;stroke-linejoin:round"
   x2="173.14999"
   stroke-width="2.3"
   y1="60.226002" />
                                    <g
   id="numbersOnPins"
   gorn="0.3.0.0.0.0.0.0.49">
                                        <g
   id="g70"
   gorn="0.3.0.0.0.0.0.0.49.0">
                                            <path
   d="m 22.288,57.077 v -0.972 h 2.099 v -5.732 l -1.919,0.755 -0.192,-1.007 2.363,-0.84 h 0.863 v 6.824 h 1.847 v 0.972 z"
   id="path72"
   gorn="0.3.0.0.0.0.0.0.49.0.0" />
                                        </g>
                                        <g
   id="g74"
   gorn="0.3.0.0.0.0.0.0.49.1">
                                            <path
   d="m 22.096,83.077 v -0.876 l 1.715,-1.69 c 1.644,-1.607 1.932,-2.159 1.932,-2.915 0,-0.815 -0.553,-1.463 -1.548,-1.463 -0.708,0 -1.366,0.3 -1.763,0.612 l -0.264,-0.936 c 0.588,-0.372 1.354,-0.636 2.219,-0.636 1.703,0 2.531,1.067 2.531,2.242 0,1.02 -0.372,1.799 -1.919,3.263 l -1.451,1.379 v 0.012 c 0.503,-0.012 1.379,-0.023 2.471,-0.023 h 1.188 v 1.031 z"
   id="path76"
   gorn="0.3.0.0.0.0.0.0.49.1.0" />
                                        </g>
                                        <g
   id="g78"
   gorn="0.3.0.0.0.0.0.0.49.2">
                                            <path
   d="m 23.811,109.197 c -0.54,0 -1.091,-0.084 -1.486,-0.192 l 0.119,-0.971 c 0.433,0.144 0.937,0.239 1.476,0.239 1.307,0 1.991,-0.588 1.991,-1.439 0,-0.851 -0.673,-1.391 -1.943,-1.391 -0.432,0 -0.768,0.012 -1.175,0.06 v -0.863 h 0.275 c 1.68,0 2.688,-0.456 2.688,-1.439 0,-0.707 -0.563,-1.14 -1.476,-1.14 -0.659,0 -1.223,0.181 -1.715,0.444 l -0.107,-0.947 c 0.563,-0.229 1.223,-0.396 2.015,-0.396 1.607,0 2.423,0.804 2.423,1.871 0,0.924 -0.552,1.548 -1.486,1.823 l -0.013,0.012 c 0.973,0.097 1.691,0.888 1.691,1.823 -0.003,1.535 -1.286,2.506 -3.277,2.506 z"
   id="path80"
   gorn="0.3.0.0.0.0.0.0.49.2.0" />
                                        </g>
                                        <g
   id="g82"
   gorn="0.3.0.0.0.0.0.0.49.3">
                                            <path
   d="m 26.45,133.277 v 1.8 h -1.067 v -1.8 H 21.76 l -0.084,-0.875 3.31,-5.121 h 1.464 v 5.014 h 1.282 v 0.982 z m -1.056,-4.917 h -0.012 l -2.604,3.971 c 0.72,-0.036 2.136,-0.036 2.614,-0.036 z"
   id="path84"
   gorn="0.3.0.0.0.0.0.0.49.3.0" />
                                        </g>
                                        <g
   id="g86"
   gorn="0.3.0.0.0.0.0.0.49.4">
                                            <path
   d="m 23.859,161.186 c -0.526,0 -0.971,-0.049 -1.438,-0.156 v -0.994 c 0.443,0.145 0.947,0.229 1.522,0.229 1.283,0 1.991,-0.625 1.991,-1.607 0,-0.959 -0.804,-1.463 -2.039,-1.463 -0.504,0 -0.996,0.048 -1.307,0.096 v -4.006 h 4.222 v 1.031 h -3.214 v 2.039 c 0.204,-0.013 0.479,-0.023 0.66,-0.023 1.859,0 2.842,0.959 2.842,2.193 -10e-4,1.605 -1.296,2.661 -3.239,2.661 z"
   id="path88"
   gorn="0.3.0.0.0.0.0.0.49.4.0" />
                                        </g>
                                        <g
   id="g90"
   gorn="0.3.0.0.0.0.0.0.49.5">
                                            <path
   d="m 24.747,187.197 c -1.691,0 -2.724,-1.199 -2.724,-3.286 0,-3.334 1.655,-4.737 3.982,-4.737 0.252,0 0.54,0.012 0.708,0.036 v 0.947 c -0.24,-0.036 -0.479,-0.062 -0.792,-0.062 -1.595,0 -2.423,0.924 -2.734,2.508 -0.023,0.119 -0.071,0.336 -0.107,0.588 h 0.012 c 0.396,-0.66 1.116,-1.021 1.943,-1.021 1.56,0 2.423,1.009 2.423,2.278 -10e-4,1.657 -1.081,2.749 -2.711,2.749 z m 0.06,-4.136 c -1.008,0 -1.595,0.814 -1.595,1.486 0,0.971 0.563,1.764 1.631,1.764 0.959,0 1.511,-0.695 1.511,-1.68 0,-0.924 -0.528,-1.57 -1.547,-1.57 z"
   id="path92"
   gorn="0.3.0.0.0.0.0.0.49.5.0" />
                                        </g>
                                        <g
   id="g94"
   gorn="0.3.0.0.0.0.0.0.49.6">
                                            <path
   d="M 24.339,213.077 H 23.08 c 0.792,-2.171 1.871,-4.665 3.01,-6.765 -0.276,0.013 -1.847,0.023 -2.962,0.023 h -1.055 v -1.057 h 5.265 v 0.937 c -1.212,2.258 -2.304,4.823 -2.999,6.862 z"
   id="path96"
   gorn="0.3.0.0.0.0.0.0.49.6.0" />
                                        </g>
                                        <g
   id="g98"
   gorn="0.3.0.0.0.0.0.0.49.7">
                                            <path
   d="m 24.626,239.197 c -1.56,0 -2.579,-0.768 -2.579,-1.955 0,-0.995 0.792,-1.596 1.667,-2.1 -0.912,-0.468 -1.477,-1.02 -1.477,-1.918 0,-1.188 1.021,-2.063 2.52,-2.063 1.499,0 2.386,0.792 2.386,1.896 0,0.899 -0.684,1.451 -1.487,1.932 0.863,0.443 1.68,0.994 1.68,2.087 0.001,1.306 -1.174,2.121 -2.71,2.121 z m -0.011,-3.634 c -0.757,0.42 -1.439,0.863 -1.439,1.596 0,0.672 0.552,1.162 1.559,1.162 0.828,0 1.477,-0.42 1.477,-1.139 -0.002,-0.851 -0.758,-1.235 -1.597,-1.619 z m 0.06,-3.538 c -0.84,0 -1.319,0.502 -1.319,1.103 0,0.647 0.443,0.983 1.403,1.452 0.695,-0.396 1.283,-0.792 1.283,-1.428 0,-0.709 -0.54,-1.127 -1.367,-1.127 z"
   id="path100"
   gorn="0.3.0.0.0.0.0.0.49.7.0" />
                                        </g>
                                        <g
   id="g102"
   gorn="0.3.0.0.0.0.0.0.49.8">
                                            <path
   d="m 147.931,239.186 c -0.312,0 -0.647,-0.023 -0.96,-0.084 v -0.972 c 0.335,0.084 0.72,0.12 1.079,0.12 1.535,0 2.375,-0.792 2.65,-2.339 0.035,-0.229 0.061,-0.372 0.107,-0.576 h -0.013 c -0.383,0.552 -1.043,0.888 -1.871,0.888 -1.535,0 -2.387,-1.008 -2.387,-2.351 0,-1.644 1.128,-2.711 2.688,-2.711 1.631,0 2.698,0.996 2.698,3.286 0.002,3.407 -1.688,4.739 -3.991,4.739 z m 1.211,-7.137 c -0.947,0 -1.512,0.73 -1.512,1.655 0,0.972 0.552,1.595 1.512,1.595 1.021,0 1.583,-0.684 1.583,-1.499 0,-1.007 -0.552,-1.751 -1.583,-1.751 z"
   id="path104"
   gorn="0.3.0.0.0.0.0.0.49.8.0" />
                                        </g>
                                        <g
   id="g106"
   gorn="0.3.0.0.0.0.0.0.49.9">
                                            <path
   d="m 146.887,213.077 v -0.972 h 2.099 v -5.732 l -1.919,0.755 -0.191,-1.007 2.362,-0.84 h 0.863 v 6.824 h 1.849 v 0.972 z"
   id="path108"
   gorn="0.3.0.0.0.0.0.0.49.9.0" />
                                            <path
   d="m 155.826,213.197 c -1.716,0 -2.663,-1.057 -2.663,-4.055 0,-2.733 1.176,-3.981 2.807,-3.981 1.548,0 2.65,0.924 2.65,3.935 0,2.986 -1.379,4.101 -2.794,4.101 z m 0.059,-7.124 c -0.888,0 -1.56,0.768 -1.56,2.997 0,2.207 0.407,3.203 1.56,3.203 0.983,0 1.571,-0.996 1.571,-3.106 0.001,-2.313 -0.503,-3.094 -1.571,-3.094 z"
   id="path110"
   gorn="0.3.0.0.0.0.0.0.49.9.1" />
                                        </g>
                                        <g
   id="g112"
   gorn="0.3.0.0.0.0.0.0.49.10">
                                            <path
   d="m 146.887,187.077 v -0.972 h 2.099 v -5.732 l -1.919,0.755 -0.191,-1.007 2.362,-0.84 h 0.863 v 6.824 h 1.849 v 0.972 z"
   id="path114"
   gorn="0.3.0.0.0.0.0.0.49.10.0" />
                                            <path
   d="m 153.487,187.077 v -0.972 h 2.1 v -5.732 l -1.919,0.755 -0.192,-1.007 2.363,-0.84 h 0.863 v 6.824 h 1.848 v 0.972 z"
   id="path116"
   gorn="0.3.0.0.0.0.0.0.49.10.1" />
                                        </g>
                                        <g
   id="g118"
   gorn="0.3.0.0.0.0.0.0.49.11">
                                            <path
   d="m 146.887,161.077 v -0.972 h 2.099 v -5.732 l -1.919,0.755 -0.191,-1.007 2.362,-0.84 h 0.863 v 6.824 h 1.849 v 0.972 z"
   id="path120"
   gorn="0.3.0.0.0.0.0.0.49.11.0" />
                                            <path
   d="m 153.294,161.077 v -0.876 l 1.715,-1.69 c 1.644,-1.606 1.932,-2.159 1.932,-2.915 0,-0.814 -0.552,-1.463 -1.547,-1.463 -0.708,0 -1.367,0.301 -1.764,0.612 l -0.264,-0.937 c 0.588,-0.371 1.354,-0.636 2.219,-0.636 1.703,0 2.531,1.067 2.531,2.242 0,1.021 -0.373,1.799 -1.921,3.263 l -1.45,1.379 v 0.012 c 0.504,-0.012 1.379,-0.022 2.471,-0.022 h 1.188 v 1.031 z"
   id="path122"
   gorn="0.3.0.0.0.0.0.0.49.11.1" />
                                        </g>
                                        <g
   id="g124"
   gorn="0.3.0.0.0.0.0.0.49.12">
                                            <path
   d="m 146.887,135.077 v -0.972 h 2.099 v -5.732 l -1.919,0.755 -0.191,-1.007 2.362,-0.84 h 0.863 v 6.824 h 1.849 v 0.972 z"
   id="path126"
   gorn="0.3.0.0.0.0.0.0.49.12.0" />
                                            <path
   d="m 155.009,135.197 c -0.539,0 -1.091,-0.084 -1.486,-0.192 l 0.119,-0.971 c 0.433,0.144 0.937,0.239 1.477,0.239 1.308,0 1.99,-0.588 1.99,-1.439 0,-0.851 -0.672,-1.391 -1.942,-1.391 -0.433,0 -0.769,0.012 -1.176,0.06 v -0.862 h 0.275 c 1.679,0 2.688,-0.457 2.688,-1.439 0,-0.707 -0.563,-1.14 -1.476,-1.14 -0.66,0 -1.224,0.181 -1.715,0.444 l -0.108,-0.947 c 0.563,-0.229 1.225,-0.396 2.016,-0.396 1.606,0 2.423,0.804 2.423,1.871 0,0.924 -0.552,1.548 -1.487,1.822 l -0.012,0.013 c 0.971,0.097 1.691,0.888 1.691,1.823 -0.001,1.535 -1.286,2.505 -3.277,2.505 z"
   id="path128"
   gorn="0.3.0.0.0.0.0.0.49.12.1" />
                                        </g>
                                        <g
   id="g130"
   gorn="0.3.0.0.0.0.0.0.49.13">
                                            <path
   d="m 146.887,109.077 v -0.972 h 2.099 v -5.732 l -1.919,0.755 -0.191,-1.007 2.362,-0.84 h 0.863 v 6.824 h 1.849 v 0.972 z"
   id="path132"
   gorn="0.3.0.0.0.0.0.0.49.13.0" />
                                            <path
   d="m 157.648,107.278 v 1.799 h -1.065 v -1.799 h -3.623 l -0.084,-0.876 3.311,-5.121 h 1.463 v 5.014 h 1.283 v 0.983 z m -1.055,-4.918 h -0.012 l -2.604,3.971 c 0.72,-0.036 2.135,-0.036 2.615,-0.036 z"
   id="path134"
   gorn="0.3.0.0.0.0.0.0.49.13.1" />
                                        </g>
                                        <g
   id="g136"
   gorn="0.3.0.0.0.0.0.0.49.14">
                                            <path
   d="m 146.887,83.077 v -0.972 h 2.099 v -5.732 l -1.919,0.755 -0.191,-1.007 2.362,-0.84 h 0.863 v 6.824 h 1.849 v 0.972 z"
   id="path138"
   gorn="0.3.0.0.0.0.0.0.49.14.0" />
                                            <path
   d="m 155.058,83.186 c -0.527,0 -0.972,-0.049 -1.438,-0.156 v -0.995 c 0.442,0.144 0.946,0.228 1.522,0.228 1.283,0 1.99,-0.624 1.99,-1.607 0,-0.959 -0.803,-1.463 -2.039,-1.463 -0.504,0 -0.995,0.048 -1.307,0.096 v -4.006 h 4.222 v 1.031 h -3.214 v 2.039 c 0.203,-0.012 0.479,-0.023 0.659,-0.023 1.857,0 2.843,0.959 2.843,2.194 0,1.606 -1.296,2.662 -3.238,2.662 z"
   id="path140"
   gorn="0.3.0.0.0.0.0.0.49.14.1" />
                                        </g>
                                        <g
   id="g142"
   gorn="0.3.0.0.0.0.0.0.49.15">
                                            <path
   d="m 146.887,57.077 v -0.972 h 2.099 v -5.732 l -1.919,0.755 -0.191,-1.007 2.362,-0.84 h 0.863 v 6.824 h 1.849 v 0.972 z"
   id="path144"
   gorn="0.3.0.0.0.0.0.0.49.15.0" />
                                            <path
   d="m 155.945,57.197 c -1.689,0 -2.723,-1.199 -2.723,-3.286 0,-3.334 1.656,-4.737 3.982,-4.737 0.252,0 0.539,0.012 0.707,0.036 v 0.947 c -0.239,-0.036 -0.479,-0.061 -0.791,-0.061 -1.597,0 -2.424,0.924 -2.734,2.507 -0.023,0.12 -0.072,0.336 -0.107,0.588 h 0.013 c 0.396,-0.66 1.114,-1.02 1.941,-1.02 1.561,0 2.423,1.008 2.423,2.278 0,1.656 -1.08,2.748 -2.711,2.748 z m 0.06,-4.137 c -1.008,0 -1.596,0.815 -1.596,1.487 0,0.971 0.563,1.763 1.631,1.763 0.96,0 1.512,-0.695 1.512,-1.679 0,-0.924 -0.527,-1.571 -1.547,-1.571 z"
   id="path146"
   gorn="0.3.0.0.0.0.0.0.49.15.1" />
                                        </g>
                                    </g>
                                    <g
   id="textOnPins"
   gorn="0.3.0.0.0.0.0.0.50">
                                        <g
   id="numbersOnPins_1_"
   gorn="0.3.0.0.0.0.0.0.50.0">
                                            
                                            
                                            <g
   id="g178"
   gorn="0.3.0.0.0.0.0.0.50.0.2" />
                                            <g
   id="g190"
   gorn="0.3.0.0.0.0.0.0.50.0.3" />
                                            <g
   id="g196"
   gorn="0.3.0.0.0.0.0.0.50.0.4" />
                                            <g
   id="g202"
   gorn="0.3.0.0.0.0.0.0.50.0.5" />
                                        </g>
                                        <g
   transform="matrix(0.80000112,0,0,0.80000112,0,-1.1991692e-4)"
   id="g7">
                                            <g
   id="g6">
                                                <g
   id="g5">
                                                    <g
   id="g4">
                                                        <g
   id="g3">
                                                            <g
   id="g2">
                                                                <g
   id="g1">
                                                                    <g
   xml:space="preserve"
   fill-opacity="1"
   stroke="none"
   fill="#000000"
   font-size="14.4px"
   id="text3253"
   gorn="0.3.0.0.0.0.0.0.50.1.0.0.0.0.0.0"
   style="font-style:normal;font-weight:normal;line-height:125%;font-family:'Droid Sans';letter-spacing:0px;word-spacing:0px" />
                                                                </g>
                                                            </g>
                                                        </g>
                                                    </g>
                                                </g>
                                            </g>
                                        </g>
                                        <g
   transform="matrix(0.80000112,0,0,0.80000112,0,-1.1991692e-4)"
   id="g14">
                                            <g
   id="g13">
                                                <g
   id="g12">
                                                    <g
   id="g11">
                                                        <g
   id="g10">
                                                            <g
   id="g9">
                                                                <g
   id="g8">
                                                                    <g
   xml:space="preserve"
   fill-opacity="1"
   stroke="none"
   fill="#000000"
   font-size="12.8px"
   id="text3259"
   gorn="0.3.0.0.0.0.0.0.50.2.0.0.0.0.0.0"
   style="font-style:normal;font-weight:normal;line-height:125%;font-family:'Droid Sans';letter-spacing:0px;word-spacing:0px" />
                                                                </g>
                                                            </g>
                                                        </g>
                                                    </g>
                                                </g>
                                            </g>
                                        </g>
                                        <g
   transform="matrix(0.80000112,0,0,0.80000112,0,-1.1991692e-4)"
   id="g21">
                                            <g
   id="g20">
                                                <g
   id="g19">
                                                    <g
   id="g18">
                                                        <g
   id="g17">
                                                            <g
   id="g16">
                                                                <g
   id="g15">
                                                                    <g
   xml:space="preserve"
   fill-opacity="1"
   stroke="none"
   fill="#000000"
   font-size="12.8px"
   id="text3263"
   gorn="0.3.0.0.0.0.0.0.50.3.0.0.0.0.0.0"
   style="font-style:normal;font-weight:normal;line-height:125%;font-family:'Droid Sans';letter-spacing:0px;word-spacing:0px" />
                                                                </g>
                                                            </g>
                                                        </g>
                                                    </g>
                                                </g>
                                            </g>
                                        </g>
                                        <g
   transform="matrix(0.80000112,0,0,0.80000112,0,-1.1991692e-4)"
   id="g28">
                                            <g
   id="g27">
                                                <g
   id="g26">
                                                    <g
   id="g25">
                                                        <g
   id="g24">
                                                            <g
   id="g23">
                                                                <g
   id="g22">
                                                                    <g
   xml:space="preserve"
   fill-opacity="1"
   stroke="none"
   fill="#000000"
   font-size="14.4px"
   id="text3267"
   gorn="0.3.0.0.0.0.0.0.50.4.0.0.0.0.0.0"
   style="font-style:normal;font-weight:normal;line-height:125%;font-family:'Droid Sans';letter-spacing:0px;word-spacing:0px" />
                                                                </g>
                                                            </g>
                                                        </g>
                                                    </g>
                                                </g>
                                            </g>
                                        </g>
                                        <g
   transform="matrix(0.80000112,0,0,0.80000112,0,-1.1991692e-4)"
   id="g35">
                                            <g
   id="g34">
                                                <g
   id="g33">
                                                    <g
   id="g32">
                                                        <g
   id="g31">
                                                            <g
   id="g30">
                                                                <g
   id="g29">
                                                                    <g
   xml:space="preserve"
   fill-opacity="1"
   stroke="none"
   fill="#000000"
   font-size="12.8px"
   id="text3271"
   gorn="0.3.0.0.0.0.0.0.50.5.0.0.0.0.0.0"
   style="font-style:normal;font-weight:normal;line-height:125%;font-family:'Droid Sans';letter-spacing:0px;word-spacing:0px" />
                                                                </g>
                                                            </g>
                                                        </g>
                                                    </g>
                                                </g>
                                            </g>
                                        </g>
                                        <g
   transform="scale(0.99720513,1.0028027)"
   id="g42">
                                            <g
   id="g41">
                                                <g
   id="g40">
                                                    <g
   id="g39">
                                                        <g
   id="g38">
                                                            <g
   id="g37">
                                                                <g
   id="g36">
                                                                    <g
   xml:space="preserve"
   fill-opacity="1"
   stroke="none"
   fill="#000000"
   font-size="10.2114px"
   id="text3279"
   gorn="0.3.0.0.0.0.0.0.50.6.0.0.0.0.0.0"
   style="font-style:normal;font-weight:normal;line-height:200%;font-family:'Droid Sans';letter-spacing:0.016px;word-spacing:0px" />
                                                                </g>
                                                            </g>
                                                        </g>
                                                    </g>
                                                </g>
                                            </g>
                                        </g>
                                        
                                        
                                        
                                        <g
   transform="matrix(0.80000112,0,0,0.80000112,0,-1.1991692e-4)"
   id="g49">
                                            <g
   id="g48">
                                                <g
   id="g47">
                                                    <g
   id="g46">
                                                        <g
   id="g45">
                                                            <g
   id="g44">
                                                                <g
   id="g43">
                                                                    <g
   xml:space="preserve"
   fill-opacity="1"
   stroke="none"
   fill="#000000"
   font-size="12.8px"
   id="text3166"
   gorn="0.3.0.0.0.0.0.0.50.10.0.0.0.0.0.0"
   style="font-style:normal;font-weight:normal;line-height:125%;font-family:'Droid Sans';letter-spacing:0px;word-spacing:0px" />
                                                                </g>
                                                            </g>
                                                        </g>
                                                    </g>
                                                </g>
                                            </g>
                                        </g>
                                        <g
   xml:space="preserve"
   fill-opacity="1"
   stroke="none"
   fill="#000000"
   font-size="10.24px"
   id="text3186"
   gorn="0.3.0.0.0.0.0.0.50.11"
   style="font-style:normal;font-weight:normal;line-height:125%;font-family:'Droid Sans';letter-spacing:0px;word-spacing:0px">
                                            <text
   y="167.60629"
   x="38.320316"
   id="tspan3188"
   gorn="0.3.0.0.0.0.0.0.50.11.0">VCC</text>
                                        </g>
                                        <g
   xml:space="preserve"
   fill-opacity="1"
   stroke="none"
   fill="#000000"
   font-size="10.24px"
   id="text3190"
   gorn="0.3.0.0.0.0.0.0.50.12"
   style="font-style:normal;font-weight:normal;line-height:125%;font-family:'Droid Sans';letter-spacing:0px;word-spacing:0px">
                                            <text
   y="194.12085"
   x="38.513855"
   id="tspan3192"
   gorn="0.3.0.0.0.0.0.0.50.12.0">S2</text>
                                        </g>
                                        <g
   xml:space="preserve"
   fill-opacity="1"
   stroke="none"
   fill="#000000"
   font-size="10.24px"
   id="text3194"
   gorn="0.3.0.0.0.0.0.0.50.13"
   style="font-style:normal;font-weight:normal;line-height:125%;font-family:'Droid Sans';letter-spacing:0px;word-spacing:0px">
                                            <text
   y="221.11926"
   x="38.70739"
   id="tspan3196"
   gorn="0.3.0.0.0.0.0.0.50.13.0">B2</text>
                                        </g>
                                        <text
   y="247.14996"
   x="37.836475"
   id="tspan3200"
   gorn="0.3.0.0.0.0.0.0.50.14.0"
   style="font-style:normal;font-weight:normal;font-size:10.24px;line-height:125%;font-family:'Droid Sans';letter-spacing:0px;word-spacing:0px;fill:#000000;fill-opacity:1;stroke:none">A2</text>
                                        <text
   y="90.385048"
   x="140.54243"
   id="tspan3204"
   gorn="0.3.0.0.0.0.0.0.50.15.0"
   style="font-style:normal;font-weight:normal;font-size:10.24px;line-height:125%;font-family:'Droid Sans';letter-spacing:0px;word-spacing:0px;fill:#000000;fill-opacity:1;stroke:none"><tspan
     style="text-align:end;text-anchor:end"
     id="tspan1">S4</tspan></text>
                                        <text
   y="114.67393"
   x="140.65083"
   id="tspan3208"
   gorn="0.3.0.0.0.0.0.0.50.16.0"
   style="font-style:normal;font-weight:normal;font-size:10.24px;line-height:125%;font-family:'Droid Sans';letter-spacing:0px;word-spacing:0px;fill:#000000;fill-opacity:1;stroke:none"><tspan
     style="text-align:end;text-anchor:end"
     id="tspan2">C4</tspan></text>
                                        <text
   y="141.28526"
   x="140.56537"
   id="tspan3212"
   gorn="0.3.0.0.0.0.0.0.50.17.0"
   style="font-style:normal;font-weight:normal;font-size:10.24px;line-height:125%;font-family:'Droid Sans';letter-spacing:0px;word-spacing:0px;fill:#000000;fill-opacity:1;stroke:none"><tspan
     style="text-align:end;text-anchor:end"
     id="tspan3">C0</tspan></text>
                                        <text
   y="168.57396"
   x="140.27829"
   id="tspan3216"
   gorn="0.3.0.0.0.0.0.0.50.18.0"
   style="font-style:normal;font-weight:normal;font-size:10.24px;line-height:125%;font-family:'Droid Sans';text-align:end;letter-spacing:0px;word-spacing:0px;text-anchor:end;fill:#000000;fill-opacity:1;stroke:none">GND</text>
                                        <text
   y="193.34671"
   x="140.67712"
   id="tspan3220"
   gorn="0.3.0.0.0.0.0.0.50.19.0"
   style="font-style:normal;font-weight:normal;font-size:10.24px;line-height:125%;font-family:'Droid Sans';letter-spacing:0px;word-spacing:0px;fill:#000000;fill-opacity:1;stroke:none"><tspan
     style="text-align:end;text-anchor:end"
     id="tspan4">B1</tspan></text>
                                        <text
   y="219.66772"
   x="141.04036"
   id="tspan3224"
   gorn="0.3.0.0.0.0.0.0.50.20.0"
   style="font-style:normal;font-weight:normal;font-size:10.24px;line-height:125%;font-family:'Droid Sans';letter-spacing:0px;word-spacing:0px;fill:#000000;fill-opacity:1;stroke:none"><tspan
     style="text-align:end;text-anchor:end"
     id="tspan5">A1</tspan></text>
                                        <text
   y="245.76157"
   x="140.69391"
   id="tspan3228"
   gorn="0.3.0.0.0.0.0.0.50.21.0"
   style="font-style:normal;font-weight:normal;font-size:10.24px;line-height:125%;font-family:'Droid Sans';letter-spacing:0px;word-spacing:0px;fill:#000000;fill-opacity:1;stroke:none"><tspan
     style="text-align:end;text-anchor:end"
     id="tspan6">S1</tspan></text>
                                    <text
   y="63.385029"
   x="140.62743"
   id="text64"
   gorn="0.3.0.0.0.0.0.0.50.15.0"
   style="font-style:normal;font-weight:normal;font-size:10.24px;line-height:125%;font-family:'Droid Sans';text-align:end;letter-spacing:0px;word-spacing:0px;text-anchor:end;fill:#000000;fill-opacity:1;stroke:none">B4</text></g>
                                    <text
   y="28.656124"
   x="39.648483"
   font-size="23.8794"
   id="text270"
   gorn="0.3.0.0.0.0.0.0.51"
   style="font-size:23.8794px;font-family:'Droid Droid Sans'">74LS83</text>
                                </g>
            </g>
        </g>
    <text
   y="60.580353"
   x="37.933243"
   id="tspan3172"
   gorn="0.4.0.0.0.0.0.0.0"
   style="font-style:normal;font-weight:normal;font-size:10.24px;line-height:125%;font-family:'Droid Sans';letter-spacing:0px;word-spacing:0px;fill:#000000;fill-opacity:1;stroke:none;stroke-width:0.800001">A4</text>
    <text
   y="90.38504"
   x="37.546169"
   id="tspan3176"
   gorn="0.5.0"
   style="font-style:normal;font-weight:normal;font-size:10.24px;line-height:125%;font-family:'Droid Sans';letter-spacing:0px;word-spacing:1px;white-space:pre;inline-size:39.4201;fill:#000000;fill-opacity:1;stroke:none"
   xml:space="preserve"><tspan
     x="37.546169"
     y="90.38504"
     id="tspan7">S3</tspan></text>
    <text
   y="115.35131"
   x="38.320316"
   id="tspan3180"
   gorn="0.6.0"
   style="font-style:normal;font-weight:normal;font-size:10.24px;line-height:125%;font-family:'Droid Sans';letter-spacing:0px;word-spacing:0px;fill:#000000;fill-opacity:1;stroke:none">A3</text>
    <text
   y="142.44649"
   x="37.352631"
   id="tspan3184"
   gorn="0.7.0"
   style="font-style:normal;font-weight:normal;font-size:10.24px;line-height:125%;font-family:'Droid Sans';letter-spacing:0px;word-spacing:0px;fill:#000000;fill-opacity:1;stroke:none">B3</text>
</svg>
