<?xml version="1.0" encoding="UTF-8" standalone="no"?>
<!-- Created with Fritzing (http://www.fritzing.org/) -->

<svg
   x="0in"
   version="1.2"
   gorn="0"
   id="svg10818"
   viewBox="0 0 800 330"
   y="0in"
   width="0.8in"
   height="0.33in"
   sodipodi:docname="74HC161-bb.svg"
   inkscape:version="1.3.2 (091e20e, 2023-11-25, custom)"
   xmlns:inkscape="http://www.inkscape.org/namespaces/inkscape"
   xmlns:sodipodi="http://sodipodi.sourceforge.net/DTD/sodipodi-0.dtd"
   xmlns="http://www.w3.org/2000/svg"
   xmlns:svg="http://www.w3.org/2000/svg">
  <sodipodi:namedview
     id="namedview1"
     pagecolor="#505050"
     bordercolor="#eeeeee"
     borderopacity="1"
     inkscape:showpageshadow="0"
     inkscape:pageopacity="0"
     inkscape:pagecheckerboard="0"
     inkscape:deskcolor="#505050"
     inkscape:document-units="in"
     inkscape:zoom="5.4687499"
     inkscape:cx="38.400001"
     inkscape:cy="15.908572"
     inkscape:window-width="1024"
     inkscape:window-height="600"
     inkscape:window-x="0"
     inkscape:window-y="9"
     inkscape:window-maximized="0"
     inkscape:current-layer="g284" />
  <defs
     id="defs10822" />
  <desc
     id="desc10739">
    <referenceFile>generic_ic_dip_16_300mil_bread.svg</referenceFile>
  </desc>
  <g
     gorn="0.2"
     id="breadboard">
    <g
       gorn="0.2.0"
       id="g385">
      <g
         gorn="0.2.0.0"
         id="g284">
        <rect
           x="0"
           gorn="0.2.0.0.0"
           id="middle"
           y="30"
           width="800"
           fill="#303030"
           height="270" />
        <rect
           x="0"
           gorn="0.2.0.0.1"
           id="top"
           y="30"
           width="800"
           fill="#3D3D3D"
           height="24.6" />
        <rect
           x="0"
           gorn="0.2.0.0.2"
           id="bottom"
           y="275.4"
           width="800"
           fill="#000000"
           height="24.6" />
        <polygon
           gorn="0.2.0.0.3"
           id="right"
           fill="#141414"
           points="800,30,792.5,54.6,792.5,275.4,800,300" />
        <polygon
           gorn="0.2.0.0.4"
           id="left"
           fill="#1F1F1F"
           points="0,30,7.5,54.6,7.5,275.4,0,300" />
        <polygon
           gorn="0.2.0.0.5"
           id="left-upper-rect"
           fill="#1C1C1C"
           points="50,115,7.5,114.6,5.6,135.8,5.6,165,50,165" />
        <polygon
           gorn="0.2.0.0.6"
           id="left-lower-rect"
           fill="#383838"
           points="7.5,215.5,50,215.5,50,165,5.6,165,5.6,194.2" />
        <path
           d="M5.6,135.8l0,58.3c14.7,-1.7,26.2,-14,26.2,-29.2C31.8,149.7,20.4,137.5,5.6,135.8z"
           gorn="0.2.0.0.7"
           id="slot"
           fill="#262626" />
        <path
           d="M7.5,54.6L7.5,114.5c23.8,4.5,41.9,25.3,41.9,50.4c0,25.1,-18,46,-41.9,50.5L7.5,215.5l50,0L57.5,54.6L7.5,54.6z"
           gorn="0.2.0.0.8"
           id="cover"
           fill="#303030" />
        <circle
           gorn="0.2.0.0.9"
           id="circle10750"
           r="20.6"
           fill="#212121"
           cy="234.7"
           cx="65" />
        <text
           font-family="OCRA"
           x="80"
           style="font-style:normal;font-variant:normal;font-weight:normal;font-stretch:normal;font-size:83.3333px;font-family:OCRA;-inkscape-font-specification:'OCRA, Normal';font-variant-ligatures:normal;font-variant-caps:normal;font-variant-numeric:normal;font-variant-east-asian:normal;text-anchor:start;fill:#e6e6e6;stroke:none"
           gorn="0.2.0.0.10"
           id="label"
           y="160"
           stroke="none"
           fill="#e6e6e6"
           text-anchor="start">74LS161</text>
        <rect
           x="35"
           gorn="0.2.0.0.11"
           id="connector0pin"
           y="286.6"
           width="30"
           fill="#8C8C8C"
           height="43.4" />
        <rect
           x="35"
           gorn="0.2.0.0.12"
           id="connector0terminal"
           y="300"
           width="30"
           fill="#8C8C8C"
           height="30" />
        <polygon
           gorn="0.2.0.0.13"
           id="polygon10755"
           fill="#8C8C8C"
           points="35,286.6,35,306.6,65,306.6,85,297.4,85,286.6" />
        <rect
           x="35"
           gorn="0.2.0.0.14"
           id="connector15pin"
           width="30"
           fill="#8C8C8C"
           height="43.4" />
        <rect
           x="35"
           gorn="0.2.0.0.15"
           id="connector15terminal"
           width="30"
           fill="#8C8C8C"
           height="30" />
        <polygon
           gorn="0.2.0.0.16"
           id="polygon10759"
           fill="#8C8C8C"
           points="85,43.4,85,32.6,65,23.4,35,23.4,35,43.4" />
        <rect
           x="735"
           gorn="0.2.0.0.17"
           id="connector7pin"
           y="286.6"
           width="30"
           fill="#8C8C8C"
           height="43.4" />
        <rect
           x="735"
           gorn="0.2.0.0.18"
           id="connector7terminal"
           y="300"
           width="30"
           fill="#8C8C8C"
           height="30" />
        <polygon
           gorn="0.2.0.0.19"
           id="polygon10763"
           fill="#8C8C8C"
           points="715,286.6,715,297.4,735,306.6,765,306.6,765,286.6" />
        <rect
           x="735"
           gorn="0.2.0.0.20"
           id="connector8pin"
           y="0"
           width="30"
           fill="#8C8C8C"
           height="43.4" />
        <rect
           x="735"
           gorn="0.2.0.0.21"
           id="connector8terminal"
           y="0"
           width="30"
           fill="#8C8C8C"
           height="30" />
        <polygon
           gorn="0.2.0.0.22"
           id="polygon10767"
           fill="#8C8C8C"
           points="765,43.4,765,23.4,735,23.4,715,32.6,715,43.4" />
        <rect
           x="135"
           gorn="0.2.0.0.23"
           id="connector14pin"
           y="0"
           width="30"
           fill="#8C8C8C"
           height="43.4" />
        <rect
           x="135"
           gorn="0.2.0.0.24"
           id="connector14terminal"
           width="30"
           fill="#8C8C8C"
           height="30" />
        <polygon
           gorn="0.2.0.0.25"
           id="polygon10771"
           fill="#8C8C8C"
           points="185,43.4,185,32.6,165,23.4,135,23.4,115,32.6,115,43.4" />
        <rect
           x="235"
           gorn="0.2.0.0.26"
           id="connector13pin"
           y="0"
           width="30"
           fill="#8C8C8C"
           height="43.4" />
        <rect
           x="235"
           gorn="0.2.0.0.27"
           id="connector13terminal"
           width="30"
           fill="#8C8C8C"
           height="30" />
        <polygon
           gorn="0.2.0.0.28"
           id="polygon10775"
           fill="#8C8C8C"
           points="285,43.4,285,32.6,265,23.4,235,23.4,215,32.6,215,43.4" />
        <rect
           x="335"
           gorn="0.2.0.0.29"
           id="connector12pin"
           y="0"
           width="30"
           fill="#8C8C8C"
           height="43.4" />
        <rect
           x="335"
           gorn="0.2.0.0.30"
           id="connector12terminal"
           width="30"
           fill="#8C8C8C"
           height="30" />
        <polygon
           gorn="0.2.0.0.31"
           id="polygon10779"
           fill="#8C8C8C"
           points="385,43.4,385,32.6,365,23.4,335,23.4,315,32.6,315,43.4" />
        <rect
           x="435"
           gorn="0.2.0.0.32"
           id="connector11pin"
           y="0"
           width="30"
           fill="#8C8C8C"
           height="43.4" />
        <rect
           x="435"
           gorn="0.2.0.0.33"
           id="connector11terminal"
           width="30"
           fill="#8C8C8C"
           height="30" />
        <polygon
           gorn="0.2.0.0.34"
           id="polygon10783"
           fill="#8C8C8C"
           points="485,43.4,485,32.6,465,23.4,435,23.4,415,32.6,415,43.4" />
        <rect
           x="535"
           gorn="0.2.0.0.35"
           id="connector10pin"
           y="0"
           width="30"
           fill="#8C8C8C"
           height="43.4" />
        <rect
           x="535"
           gorn="0.2.0.0.36"
           id="connector10terminal"
           width="30"
           fill="#8C8C8C"
           height="30" />
        <polygon
           gorn="0.2.0.0.37"
           id="polygon10787"
           fill="#8C8C8C"
           points="585,43.4,585,32.6,565,23.4,535,23.4,515,32.6,515,43.4" />
        <rect
           x="635"
           gorn="0.2.0.0.38"
           id="connector9pin"
           y="0"
           width="30"
           fill="#8C8C8C"
           height="43.4" />
        <rect
           x="635"
           gorn="0.2.0.0.39"
           id="connector9terminal"
           width="30"
           fill="#8C8C8C"
           height="30" />
        <polygon
           gorn="0.2.0.0.40"
           id="polygon10791"
           fill="#8C8C8C"
           points="685,43.4,685,32.6,665,23.4,635,23.4,615,32.6,615,43.4" />
        <rect
           x="135"
           gorn="0.2.0.0.41"
           id="connector1pin"
           y="286.6"
           width="30"
           fill="#8C8C8C"
           height="43.4" />
        <rect
           x="135"
           gorn="0.2.0.0.42"
           id="connector1terminal"
           y="300"
           width="30"
           fill="#8C8C8C"
           height="30" />
        <polygon
           gorn="0.2.0.0.43"
           id="polygon10795"
           fill="#8C8C8C"
           points="115,286.6,115,297.4,135,306.6,165,306.6,185,297.4,185,286.6" />
        <rect
           x="235"
           gorn="0.2.0.0.44"
           id="connector2pin"
           y="286.6"
           width="30"
           fill="#8C8C8C"
           height="43.4" />
        <rect
           x="235"
           gorn="0.2.0.0.45"
           id="connector2terminal"
           y="300"
           width="30"
           fill="#8C8C8C"
           height="30" />
        <polygon
           gorn="0.2.0.0.46"
           id="polygon10799"
           fill="#8C8C8C"
           points="215,286.6,215,297.4,235,306.6,265,306.6,285,297.4,285,286.6" />
        <rect
           x="335"
           gorn="0.2.0.0.47"
           id="connector3pin"
           y="286.6"
           width="30"
           fill="#8C8C8C"
           height="43.4" />
        <rect
           x="335"
           gorn="0.2.0.0.48"
           id="connector3terminal"
           y="300"
           width="30"
           fill="#8C8C8C"
           height="30" />
        <polygon
           gorn="0.2.0.0.49"
           id="polygon10803"
           fill="#8C8C8C"
           points="315,286.6,315,297.4,335,306.6,365,306.6,385,297.4,385,286.6" />
        <rect
           x="435"
           gorn="0.2.0.0.50"
           id="connector4pin"
           y="286.6"
           width="30"
           fill="#8C8C8C"
           height="43.4" />
        <rect
           x="435"
           gorn="0.2.0.0.51"
           id="connector4terminal"
           y="300"
           width="30"
           fill="#8C8C8C"
           height="30" />
        <polygon
           gorn="0.2.0.0.52"
           id="polygon10807"
           fill="#8C8C8C"
           points="415,286.6,415,297.4,435,306.6,465,306.6,485,297.4,485,286.6" />
        <rect
           x="535"
           gorn="0.2.0.0.53"
           id="connector5pin"
           y="286.6"
           width="30"
           fill="#8C8C8C"
           height="43.4" />
        <rect
           x="535"
           gorn="0.2.0.0.54"
           id="connector5terminal"
           y="300"
           width="30"
           fill="#8C8C8C"
           height="30" />
        <polygon
           gorn="0.2.0.0.55"
           id="polygon10811"
           fill="#8C8C8C"
           points="515,286.6,515,297.4,535,306.6,565,306.6,585,297.4,585,286.6" />
        <rect
           x="635"
           gorn="0.2.0.0.56"
           id="connector6pin"
           y="286.6"
           width="30"
           fill="#8C8C8C"
           height="43.4" />
        <rect
           x="635"
           gorn="0.2.0.0.57"
           id="connector6terminal"
           y="300"
           width="30"
           fill="#8C8C8C"
           height="30" />
        <polygon
           gorn="0.2.0.0.58"
           id="polygon10815"
           fill="#8C8C8C"
           points="615,286.6,615,297.4,635,306.6,665,306.6,685,297.4,685,286.6" />
      </g>
    </g>
  </g>
</svg>
