<?xml version="1.0" encoding="UTF-8" standalone="no"?>
<svg
   gorn="0"
   viewBox="0 0 700 330"
   id="svg2"
   height="0.33in"
   version="1.2"
   width="0.7in"
   sodipodi:docname="74LS32.svg"
   inkscape:version="1.3.2 (091e20e, 2023-11-25, custom)"
   xmlns:inkscape="http://www.inkscape.org/namespaces/inkscape"
   xmlns:sodipodi="http://sodipodi.sourceforge.net/DTD/sodipodi-0.dtd"
   xmlns="http://www.w3.org/2000/svg"
   xmlns:svg="http://www.w3.org/2000/svg"
   xmlns:rdf="http://www.w3.org/1999/02/22-rdf-syntax-ns#"
   xmlns:cc="http://creativecommons.org/ns#"
   xmlns:dc="http://purl.org/dc/elements/1.1/">
  <sodipodi:namedview
     id="namedview1"
     pagecolor="#505050"
     bordercolor="#eeeeee"
     borderopacity="1"
     inkscape:showpageshadow="0"
     inkscape:pageopacity="0"
     inkscape:pagecheckerboard="0"
     inkscape:deskcolor="#505050"
     inkscape:document-units="in"
     inkscape:zoom="6.2500001"
     inkscape:cx="33.599999"
     inkscape:cy="15.84"
     inkscape:window-width="1024"
     inkscape:window-height="600"
     inkscape:window-x="0"
     inkscape:window-y="9"
     inkscape:window-maximized="0"
     inkscape:current-layer="label" />
  <desc
     id="desc1">
    <referenceFile>74HC00_breadboard.svg</referenceFile>
  </desc>
  <metadata
     id="metadata76">
    <rdf:RDF>
      <cc:Work
         rdf:about="">
        <dc:format>image/svg+xml</dc:format>
        <dc:type
           rdf:resource="http://purl.org/dc/dcmitype/StillImage" />
      </cc:Work>
    </rdf:RDF>
  </metadata>
  <defs
     id="defs74" />
  <g
     gorn="0.3"
     id="breadboard">
    <g
       gorn="0.3.0"
       id="g434">
      <rect
         y="30"
         gorn="0.3.0.0"
         id="middle"
         height="270"
         fill="#303030"
         width="700"
         stroke-width="10"
         x="0" />
      <rect
         y="30"
         gorn="0.3.0.1"
         id="top"
         height="24.6"
         fill="#3d3d3d"
         width="700"
         stroke-width="10"
         x="0" />
      <rect
         y="275"
         gorn="0.3.0.2"
         id="bottom"
         height="24.6"
         fill="#000000"
         width="700"
         stroke-width="10"
         x="0" />
      <polygon
         gorn="0.3.0.3"
         id="right"
         fill="#141414"
         points="692.5,275.4 700,300 700,30 692.5,54.6 " />
      <polygon
         gorn="0.3.0.4"
         id="left"
         fill="#1f1f1f"
         points="7.5,275 0,300 0,30 7.5,54 " />
      <polygon
         gorn="0.3.0.5"
         id="left-upper-rect"
         fill="#1c1c1c"
         points="50,115 7.5,114 5.6,135 5.6,165 50,165 " />
      <polygon
         gorn="0.3.0.6"
         id="left-lower-rect"
         fill="#383838"
         points="7.5,215 50,215 50,165 5.6,165 5.6,190 " />
      <path
         d="m 5.6,135 v 58.3 c 14.7,-1.7 26,-14 26,-29 0,-15 -11,-27 -26,-29 z"
         gorn="0.3.0.7"
         id="slot"
         fill="#262626"
         stroke-width="10" />
      <path
         d="m 7.5,54 v 60 c 24,4.5 42,25 42,50 0,25 -18,46 -42,50 v 0.1 H 58 V 55 Z"
         gorn="0.3.0.8"
         id="cover"
         fill="#303030"
         stroke-width="10" />
      <circle
         gorn="0.3.0.9"
         cy="234"
         r="20.6"
         id="circle13"
         fill="#212121"
         stroke-width="10"
         cx="65" />
      <g
         text-anchor="middle"
         style="font-style:normal;font-variant:normal;font-weight:normal;font-stretch:normal;font-size:83.3333px;font-family:OCRA;-inkscape-font-specification:'OCRA, Normal';font-variant-ligatures:normal;font-variant-caps:normal;font-variant-numeric:normal;font-variant-east-asian:normal;text-anchor:middle;fill:#e6e6e6"
         gorn="0.3.0.10"
         font-family="OCRA"
         id="label"
         fill="#e6e6e6">
        <text
           y="162.15631"
           gorn="0.3.0.10.0"
           id="tspan272"
           x="249.07286">74LS32</text>
      </g>
      <rect
         y="286"
         gorn="0.3.0.11"
         id="connector0pin"
         height="43"
         fill="#8c8c8c"
         width="30"
         stroke-width="10"
         x="35" />
      <rect
         y="300"
         gorn="0.3.0.12"
         id="connector0terminal"
         height="30"
         fill="#8c8c8c"
         width="30"
         stroke-width="10"
         x="35" />
      <polygon
         gorn="0.3.0.13"
         id="polygon18"
         fill="#8c8c8c"
         points="35,286 35,306 65,306 85,297 85,286 " />
      <rect
         y="0"
         gorn="0.3.0.14"
         id="connector13pin"
         height="43"
         fill="#8c8c8c"
         width="30"
         stroke-width="10"
         x="35" />
      <rect
         y="0"
         gorn="0.3.0.15"
         id="connector13terminal"
         height="30"
         fill="#8c8c8c"
         width="30"
         stroke-width="10"
         x="35" />
      <polygon
         gorn="0.3.0.16"
         id="polygon22"
         fill="#8c8c8c"
         points="85,43 85,32 65,23 35,23 35,43 " />
      <rect
         y="286"
         gorn="0.3.0.17"
         id="connector6pin"
         height="43"
         fill="#8c8c8c"
         width="30"
         stroke-width="10"
         x="635" />
      <rect
         y="300"
         gorn="0.3.0.18"
         id="connector6terminal"
         height="30"
         fill="#8c8c8c"
         width="30"
         stroke-width="10"
         x="635" />
      <polygon
         gorn="0.3.0.19"
         id="polygon26"
         fill="#8c8c8c"
         points="615,286 615,297 635,306 665,306 665,286 " />
      <rect
         y="0"
         gorn="0.3.0.20"
         id="connector7pin"
         height="43"
         fill="#8c8c8c"
         width="30"
         stroke-width="10"
         x="635" />
      <rect
         y="0"
         gorn="0.3.0.21"
         id="connector7terminal"
         height="30"
         fill="#8c8c8c"
         width="30"
         stroke-width="10"
         x="635" />
      <polygon
         gorn="0.3.0.22"
         id="polygon30"
         fill="#8c8c8c"
         points="665,43 665,23 635,23 615,32 615,43 " />
      <rect
         y="0"
         gorn="0.3.0.23"
         id="connector12pin"
         height="43"
         fill="#8c8c8c"
         width="30"
         stroke-width="10"
         x="135" />
      <rect
         y="0"
         gorn="0.3.0.24"
         id="connector12terminal"
         height="30"
         fill="#8c8c8c"
         width="30"
         stroke-width="10"
         x="135" />
      <polygon
         gorn="0.3.0.25"
         id="polygon34"
         fill="#8c8c8c"
         points="115,32 115,43 185,43 185,32 165,23 135,23 " />
      <rect
         y="0"
         gorn="0.3.0.26"
         id="connector11pin"
         height="43"
         fill="#8c8c8c"
         width="30"
         stroke-width="10"
         x="235" />
      <rect
         y="0"
         gorn="0.3.0.27"
         id="connector11terminal"
         height="30"
         fill="#8c8c8c"
         width="30"
         stroke-width="10"
         x="235" />
      <polygon
         gorn="0.3.0.28"
         id="polygon38"
         fill="#8c8c8c"
         points="215,32 215,43 285,43 285,32 265,23 235,23 " />
      <rect
         y="0"
         gorn="0.3.0.29"
         id="connector10pin"
         height="43"
         fill="#8c8c8c"
         width="30"
         stroke-width="10"
         x="335" />
      <rect
         y="0"
         gorn="0.3.0.30"
         id="connector10terminal"
         height="30"
         fill="#8c8c8c"
         width="30"
         stroke-width="10"
         x="335" />
      <polygon
         gorn="0.3.0.31"
         id="polygon42"
         fill="#8c8c8c"
         points="315,32 315,43 385,43 385,32 365,23 335,23 " />
      <rect
         y="0"
         gorn="0.3.0.32"
         id="connector9pin"
         height="43"
         fill="#8c8c8c"
         width="30"
         stroke-width="10"
         x="435" />
      <rect
         y="0"
         gorn="0.3.0.33"
         id="connector9terminal"
         height="30"
         fill="#8c8c8c"
         width="30"
         stroke-width="10"
         x="435" />
      <polygon
         gorn="0.3.0.34"
         id="polygon46"
         fill="#8c8c8c"
         points="415,32 415,43 485,43 485,32 465,23 435,23 " />
      <rect
         y="0"
         gorn="0.3.0.35"
         id="connector8pin"
         height="43"
         fill="#8c8c8c"
         width="30"
         stroke-width="10"
         x="535" />
      <rect
         y="0"
         gorn="0.3.0.36"
         id="connector8terminal"
         height="30"
         fill="#8c8c8c"
         width="30"
         stroke-width="10"
         x="535" />
      <polygon
         gorn="0.3.0.37"
         id="polygon50"
         fill="#8c8c8c"
         points="515,32 515,43 585,43 585,32 565,23 535,23 " />
      <rect
         y="286"
         gorn="0.3.0.38"
         id="connector1pin"
         height="43"
         fill="#8c8c8c"
         width="30"
         stroke-width="10"
         x="135" />
      <rect
         y="300"
         gorn="0.3.0.39"
         id="connector1terminal"
         height="30"
         fill="#8c8c8c"
         width="30"
         stroke-width="10"
         x="135" />
      <polygon
         gorn="0.3.0.40"
         id="polygon54"
         fill="#8c8c8c"
         points="185,297 185,286 115,286 115,297 135,306 165,306 " />
      <rect
         y="286"
         gorn="0.3.0.41"
         id="connector2pin"
         height="43"
         fill="#8c8c8c"
         width="30"
         stroke-width="10"
         x="235" />
      <rect
         y="300"
         gorn="0.3.0.42"
         id="connector2terminal"
         height="30"
         fill="#8c8c8c"
         width="30"
         stroke-width="10"
         x="235" />
      <polygon
         gorn="0.3.0.43"
         id="polygon58"
         fill="#8c8c8c"
         points="285,297 285,286 215,286 215,297 235,306 265,306 " />
      <rect
         y="286"
         gorn="0.3.0.44"
         id="connector3pin"
         height="43"
         fill="#8c8c8c"
         width="30"
         stroke-width="10"
         x="335" />
      <rect
         y="300"
         gorn="0.3.0.45"
         id="connector3terminal"
         height="30"
         fill="#8c8c8c"
         width="30"
         stroke-width="10"
         x="335" />
      <polygon
         gorn="0.3.0.46"
         id="polygon62"
         fill="#8c8c8c"
         points="385,297 385,286 315,286 315,297 335,306 365,306 " />
      <rect
         y="286"
         gorn="0.3.0.47"
         id="connector4pin"
         height="43"
         fill="#8c8c8c"
         width="30"
         stroke-width="10"
         x="435" />
      <rect
         y="300"
         gorn="0.3.0.48"
         id="connector4terminal"
         height="30"
         fill="#8c8c8c"
         width="30"
         stroke-width="10"
         x="435" />
      <polygon
         gorn="0.3.0.49"
         id="polygon66"
         fill="#8c8c8c"
         points="485,297 485,286 415,286 415,297 435,306 465,306 " />
      <rect
         y="286"
         gorn="0.3.0.50"
         id="connector5pin"
         height="43"
         fill="#8c8c8c"
         width="30"
         stroke-width="10"
         x="535" />
      <rect
         y="300"
         gorn="0.3.0.51"
         id="connector5terminal"
         height="30"
         fill="#8c8c8c"
         width="30"
         stroke-width="10"
         x="535" />
      <polygon
         gorn="0.3.0.52"
         id="polygon70"
         fill="#8c8c8c"
         points="585,297 585,286 515,286 515,297 535,306 565,306 " />
    </g>
  </g>
</svg>
