<?xml version="1.0" encoding="UTF-8" standalone="no"?>
<svg
   version="1.2"
   gorn="0"
   height="0.33in"
   width="0.4in"
   viewBox="0 0 40 33"
   id="svg2"
   sodipodi:docname="NE555.svg"
   inkscape:version="1.3.2 (091e20e, 2023-11-25, custom)"
   xmlns:inkscape="http://www.inkscape.org/namespaces/inkscape"
   xmlns:sodipodi="http://sodipodi.sourceforge.net/DTD/sodipodi-0.dtd"
   xmlns="http://www.w3.org/2000/svg"
   xmlns:svg="http://www.w3.org/2000/svg">
  <defs
     id="defs8" />
  <sodipodi:namedview
     id="namedview8"
     pagecolor="#505050"
     bordercolor="#eeeeee"
     borderopacity="1"
     inkscape:showpageshadow="0"
     inkscape:pageopacity="0"
     inkscape:pagecheckerboard="0"
     inkscape:deskcolor="#505050"
     inkscape:document-units="in"
     inkscape:zoom="10.9375"
     inkscape:cx="19.2"
     inkscape:cy="15.817143"
     inkscape:window-width="1024"
     inkscape:window-height="600"
     inkscape:window-x="0"
     inkscape:window-y="9"
     inkscape:window-maximized="0"
     inkscape:current-layer="breadboard" />
  <desc
     id="desc1">
    <referenceFile>generic_ic_dip_8_300mil_bread.svg</referenceFile>
  </desc>
  <g
     gorn="0.0"
     id="breadboard">
    <rect
       y="3"
       gorn="0.0.0"
       height="27"
       width="40"
       x="0"
       fill="#303030"
       id="middle" />
    <rect
       y="3.0"
       gorn="0.0.1"
       height="2.46"
       width="40"
       x="0"
       fill="#3D3D3D"
       id="top" />
    <rect
       y="27.54"
       gorn="0.0.2"
       height="2.46"
       width="40"
       x="0"
       fill="#000000"
       id="bottom" />
    <polygon
       gorn="0.0.3"
       fill="#141414"
       points="40,3 39.25,5.46 39.25,27.54 40,30"
       id="right" />
    <polygon
       gorn="0.0.4"
       fill="#1F1F1F"
       points="0,3 0.75,5.46 0.75,27.54 0,30"
       id="left" />
    <polygon
       gorn="0.0.5"
       fill="#1C1C1C"
       points="5,11.5 0.75,11.46 0.56,13.58 0.56,16.5 5,16.5"
       id="left-upper-rect" />
    <polygon
       gorn="0.0.6"
       fill="#383838"
       points="0.75,21.55 5,21.55 5,16.5 0.56,16.5 0.56,19.42"
       id="left-lower-rect" />
    <path
       gorn="0.0.7"
       fill="#262626"
       d="M0.56,13.58v5.83c1.47-0.17,2.62-1.4,2.62-2.92C3.18,14.97,2.04,13.75,0.56,13.58z"
       id="slot" />
    <path
       gorn="0.0.8"
       fill="#303030"
       d="M0.75,5.46V11.45c2.38,0.45,4.19,2.53,4.19,5.04c0,2.51-1.8,4.6-4.19,5.05V21.55h5.0V5.46H0.75z"
       id="cover" />
    <circle
       cy="23.47"
       fill="#212121"
       r="2.06"
       cx="6.5"
       id="circle1" />
    <text
       y="16.5"
       gorn="0.0.10"
       x="6.5"
       fill="#e6e6e6"
       stroke="none"
       font-size="8"
       text-anchor="start"
       id="label"
       font-family="OCRA">NE555</text>
    <rect
       y="28.66"
       gorn="0.0.11"
       height="4.34"
       width="3"
       x="3.5"
       fill="#8C8C8C"
       id="connector0pin" />
    <rect
       y="30"
       gorn="0.0.12"
       height="3"
       width="3"
       x="3.5"
       fill="#8C8C8C"
       id="connector0terminal" />
    <polygon
       fill="#8C8C8C"
       points="3.5,28.66 3.5,30.66 6.5,30.66 8.5,29.74 8.5,28.66 "
       id="polygon1" />
    <rect
       gorn="0.0.14"
       height="4.34"
       width="3"
       x="3.5"
       fill="#8C8C8C"
       id="connector7pin" />
    <rect
       gorn="0.0.15"
       height="3"
       width="3"
       x="3.5"
       fill="#8C8C8C"
       id="connector7terminal" />
    <polygon
       fill="#8C8C8C"
       points="8.5,4.34 8.5,3.26 6.5,2.34 3.5,2.34 3.5,4.34"
       id="polygon2" />
    <rect
       y="28.66"
       gorn="0.0.17"
       height="4.34"
       width="3"
       x="33.5"
       fill="#8C8C8C"
       id="connector3pin" />
    <rect
       y="30"
       gorn="0.0.18"
       height="3"
       width="3"
       x="33.5"
       fill="#8C8C8C"
       id="connector3terminal" />
    <polygon
       fill="#8C8C8C"
       points="31.5,28.66 31.5,29.74 33.5,30.66 36.5,30.66 36.5,28.66"
       id="polygon3" />
    <rect
       y="0"
       gorn="0.0.20"
       height="4.34"
       width="3"
       x="33.5"
       fill="#8C8C8C"
       id="connector4pin" />
    <rect
       y="0"
       gorn="0.0.21"
       height="3"
       width="3"
       x="33.5"
       fill="#8C8C8C"
       id="connector4terminal" />
    <polygon
       fill="#8C8C8C"
       points="36.5,4.34 36.5,2.34 33.5,2.34 31.5,3.26 31.5,4.34 "
       id="polygon4" />
    <rect
       y="0"
       gorn="0.0.23"
       height="4.34"
       width="3"
       x="13.5"
       fill="#8C8C8C"
       id="connector6pin" />
    <rect
       gorn="0.0.24"
       height="3"
       width="3"
       x="13.5"
       fill="#8C8C8C"
       id="connector6terminal" />
    <polygon
       fill="#8C8C8C"
       points="18.5,4.34 18.5,3.26 16.5,2.34 13.5,2.34 11.5,3.26 11.5,4.34"
       id="polygon5" />
    <rect
       y="0"
       gorn="0.0.26"
       height="4.34"
       width="3"
       x="23.5"
       fill="#8C8C8C"
       id="connector5pin" />
    <rect
       gorn="0.0.27"
       height="3"
       width="3"
       x="23.5"
       fill="#8C8C8C"
       id="connector5terminal" />
    <polygon
       fill="#8C8C8C"
       points="28.5,4.34 28.5,3.26 26.5,2.34 23.5,2.34 21.5,3.26 21.5,4.34"
       id="polygon6" />
    <rect
       y="28.66"
       gorn="0.0.29"
       height="4.34"
       width="3"
       x="13.5"
       fill="#8C8C8C"
       id="connector1pin" />
    <rect
       y="30"
       gorn="0.0.30"
       height="3"
       width="3"
       x="13.5"
       fill="#8C8C8C"
       id="connector1terminal" />
    <polygon
       fill="#8C8C8C"
       points="11.5,28.66 11.5,29.74 13.5,30.66 16.5,30.66 18.5,29.74 18.5,28.66"
       id="polygon7" />
    <rect
       y="28.66"
       gorn="0.0.32"
       height="4.34"
       width="3"
       x="23.5"
       fill="#8C8C8C"
       id="connector2pin" />
    <rect
       y="30"
       gorn="0.0.33"
       height="3"
       width="3"
       x="23.5"
       fill="#8C8C8C"
       id="connector2terminal" />
    <polygon
       fill="#8C8C8C"
       points="21.5,28.66 21.5,29.74 23.5,30.66 26.5,30.66 28.5,29.74 28.5,28.66"
       id="polygon8" />
  </g>
</svg>
